<?xml version="1.0" encoding="UTF-8" standalone="no"?>
<!-- Creator: CorelDRAW -->

<svg
   xmlns:dc="http://purl.org/dc/elements/1.1/"
   xmlns:cc="http://creativecommons.org/ns#"
   xmlns:rdf="http://www.w3.org/1999/02/22-rdf-syntax-ns#"
   xmlns:svg="http://www.w3.org/2000/svg"
   xmlns="http://www.w3.org/2000/svg"
   xmlns:sodipodi="http://sodipodi.sourceforge.net/DTD/sodipodi-0.dtd"
   xmlns:inkscape="http://www.inkscape.org/namespaces/inkscape"
   xml:space="preserve"
   width="62.000179mm"
   height="36.103458mm"
   style="clip-rule:evenodd;fill-rule:evenodd;image-rendering:optimizeQuality;shape-rendering:geometricPrecision;text-rendering:geometricPrecision"
   viewBox="0 0 62.000179 36.103458"
   version="1.1"
   id="svg28"
   sodipodi:docname="Cheetos.svg"
   inkscape:version="0.92.2 (5c3e80d, 2017-08-06)"><metadata
     id="metadata32"><rdf:RDF><cc:Work
         rdf:about=""><dc:format>image/svg+xml</dc:format><dc:type
           rdf:resource="http://purl.org/dc/dcmitype/StillImage" /><dc:title></dc:title></cc:Work></rdf:RDF></metadata><sodipodi:namedview
     pagecolor="#ffffff"
     bordercolor="#666666"
     borderopacity="1"
     objecttolerance="10"
     gridtolerance="10"
     guidetolerance="10"
     inkscape:pageopacity="0"
     inkscape:pageshadow="2"
     inkscape:window-width="1366"
     inkscape:window-height="705"
     id="namedview30"
     showgrid="false"
     fit-margin-top="0"
     fit-margin-left="0"
     fit-margin-right="0"
     fit-margin-bottom="0"
     inkscape:zoom="1"
     inkscape:cx="385.42995"
     inkscape:cy="100.9401"
     inkscape:window-x="-8"
     inkscape:window-y="-8"
     inkscape:window-maximized="1"
     inkscape:current-layer="svg28" /><defs
     id="defs4"><style
       type="text/css"
       id="style2"><![CDATA[
    .fil1 {fill:#1F1A17}
    .fil2 {fill:#E18742}
    .fil3 {fill:#EEE817}
    .fil0 {fill:white}
   ]]></style></defs><g
     id="Layer_x0020_1"
     transform="translate(-3.021658,-244.93694)"><metadata
       id="CorelCorpID_0Corel-Layer" /><path
       class="fil1"
       d="m 64.9661,254.418 c 0,-1.0184 -1.0478,-1.6992 -1.8359,-2.1387 -0.3402,-0.1898 -0.7563,-0.3095 -1.1244,-0.4483 -0.4508,-0.1703 -0.9576,-0.25 -1.4274,-0.3547 -0.4916,-0.1096 -1.0504,-0.11 -1.5532,-0.1248 -0.4939,-0.015 -0.9654,-10e-4 -1.453,0.0873 -0.4634,0.0845 -0.8992,0.2215 -1.2932,0.4849 -0.4381,0.2929 -0.53,0.7295 -0.7907,1.1531 -0.0759,-0.1937 -0.3645,-0.2953 -0.4966,-0.4459 -0.2909,-0.3325 -0.7464,-0.5445 -1.1348,-0.7388 -0.7316,-0.3657 -1.5217,-0.4931 -2.3354,-0.5365 -0.2102,-0.011 -0.4213,-0.0221 -0.6318,-0.0221 -0.0453,0 0.0175,-0.3076 0.023,-0.3351 0.0791,-0.4311 0.0611,-0.8912 -0.1073,-1.2989 -0.1613,-0.3897 -0.4417,-0.7362 -0.8069,-0.9505 -0.4607,-0.2701 -0.8751,-0.2545 -1.395,-0.2545 0.3751,-0.9288 0.5199,-2.2011 -0.2954,-2.934 -0.352,-0.3164 -0.7599,-0.5911 -1.2466,-0.62 -0.5802,-0.0343 -1.0019,0.1842 -1.495,0.4516 -1.0666,0.5782 -2.1441,1.2397 -3.1258,1.9516 -0.4538,0.3289 -0.9255,0.6298 -1.3693,0.9718 -0.4168,0.3212 -0.91,0.5793 -1.2693,0.9675 -0.1593,0.1718 -0.2879,0.371 -0.3693,0.5912 -0.0352,0.096 -0.0664,0.43 -0.2361,0.3556 -0.4835,-0.2121 -1.0518,-0.2892 -1.5749,-0.3164 -1.0508,-0.0546 -2.1913,0.199 -3.1708,0.5726 -0.9801,0.3741 -1.9283,1.0418 -2.6353,1.8135 -0.2262,0.247 -0.386,0.5372 -0.6049,0.7873 -0.1211,0.1378 -0.169,0.0373 -0.2433,-0.01 -0.1157,-0.0733 -0.2405,-0.1424 -0.3577,-0.2012 -0.1049,-0.0525 -0.2972,-0.1786 -0.4136,-0.1786 -0.1879,0 -0.3708,-0.1789 -0.5825,-0.1789 -0.3139,0 -0.5881,-0.0893 -0.9585,-0.0893 -0.7047,0 -1.2807,0.0523 -1.8007,0.2457 -0.1429,0.0532 -0.3052,0.1465 -0.4469,0.2011 -0.1103,0.0422 -0.3025,0.1788 -0.4026,0.1788 -0.0379,0 -0.1371,0.0659 -0.1787,0.0895 -0.2225,0.1255 -0.4976,0.2951 -0.7155,0.4695 -0.8822,0.7063 -1.6563,1.5727 -2.2115,2.5523 -0.2429,0.4276 -0.4159,0.8478 -0.3915,1.3504 0.0112,0.2261 0.1115,0.4645 0.0693,0.6906 -0.0375,0.2018 -0.2604,0.1043 -0.3943,0.0784 -0.1475,-0.0286 -0.177,0.005 -0.1563,-0.1564 0.0287,-0.2261 0.1057,-0.4442 0.1341,-0.6707 0.0791,-0.6347 0.2328,-1.2636 0.4188,-1.8749 0.2857,-0.9399 0.7969,-2.1753 0.4026,-3.1548 -0.321,-0.7962 -1.2407,-1.4285 -2.1112,-1.2856 -0.7829,0.1284 -1.2845,0.6796 -1.9256,1.0798 -0.4309,0.269 -0.7503,0.6953 -1.177,0.9653 -0.1109,0.0702 -0.3429,-0.4433 -0.3955,-0.5243 -0.1563,-0.2418 -0.3431,-0.4264 -0.5924,-0.5708 -0.4454,-0.2581 -0.8996,-0.3494 -1.4004,-0.214 -0.2173,0.0588 -0.4415,0.0483 -0.6553,0.1191 -0.2513,0.0832 -0.4768,0.2242 -0.7231,0.3192 -0.4729,0.1818 -0.9126,0.392 -1.3538,0.6415 -0.1563,0.0882 -0.332,0.0922 -0.4794,0.1947 -0.1916,0.133 -0.3561,0.2006 -0.555,0.3 -0.4093,0.2048 -0.8041,0.5267 -1.1884,0.7808 -0.5211,0.3446 -1.0062,0.7265 -1.4919,1.1191 -0.9091,0.7344 -1.7042,1.5379 -2.4456,2.4396 -0.7599,0.9243 -1.4568,1.8639 -2.0442,2.9096 -0.5622,1.0013 -1.0221,1.9598 -0.7855,3.1389 0.0456,0.2272 0.1156,0.439 0.2405,0.6354 0.08,0.1258 0.2604,0.2394 0.2141,0.4096 -0.0506,0.1848 -0.164,0.3431 -0.211,0.5322 -0.0701,0.2788 -0.1333,0.5536 -0.2198,0.8285 -0.3386,1.0715 -0.5081,2.252 -0.5883,3.3711 -0.1593,2.2297 -0.1218,4.5618 0.8467,6.624 0.4937,1.0514 1.2293,1.8221 2.0371,2.63 0.2044,0.2045 0.4549,0.3526 0.6812,0.5329 0.1351,0.1074 0.288,0.1497 0.4197,0.2465 0.1669,0.1236 0.3114,0.2536 0.5129,0.3242 0.3694,0.1287 0.7263,0.3182 1.0867,0.4797 0.4337,0.1944 0.9241,0.2421 1.3776,0.3744 0.4782,0.1392 1.0355,0.2065 1.5327,0.2105 0.2875,0.002 0.5748,-0.0158 0.8622,-0.0211 0.3099,-0.005 0.6064,-0.1129 0.9134,-0.1129 0.2566,0 0.4845,-0.1566 0.74,-0.1566 0.2283,0 0.409,-0.179 0.6357,-0.179 0.1892,0 0.412,-0.1195 0.5749,-0.2082 0.1693,-0.0923 0.3443,-0.1379 0.5113,-0.2213 0.9373,-0.4699 1.7086,-1.0886 2.495,-1.7686 0.8462,-0.732 1.4927,-1.7033 2.2019,-2.5627 0.3468,-0.4206 0.7181,-0.8308 1.0421,-1.2688 0.1632,-0.2197 0.2848,-0.4463 0.3829,-0.7011 0.1119,-0.2913 0.2727,-0.2529 0.5261,-0.3547 0.5041,-0.2022 0.845,-0.5828 1.2427,-0.9362 0.444,-0.394 0.9066,-0.7788 1.3325,-1.1909 0.5974,-0.5786 1.2732,-1.0794 1.8572,-1.682 0.1606,-0.1655 0.2958,-0.3481 0.4467,-0.5201 0.1516,-0.1721 0.4966,-0.0973 0.6981,-0.0973 0.3075,0 0.6153,0 0.9228,0 0.3138,0 0.6378,0.0509 0.9318,-0.0738 0.1916,-0.0811 0.4493,-0.2164 0.6599,-0.2164 0.1261,0 0.3239,-0.1672 0.4469,-0.2174 0.4416,-0.1796 0.9137,-0.5815 1.2557,-0.9053 0.2566,-0.2437 0.4187,-0.6184 0.7024,-0.8252 0.138,-0.1008 0.2126,0.0515 0.3044,0.1405 0.1034,0.1009 0.3324,0.199 0.4646,0.265 0.47,0.2351 0.9074,0.5159 1.4209,0.6485 0.5129,0.1334 1.0705,0.1041 1.5975,0.1107 1.0371,0.0131 2.0392,-0.3175 2.9535,-0.8022 0.3996,-0.2122 0.7191,-0.4788 1.0553,-0.7723 0.401,-0.3504 0.7067,0.2035 1.0469,0.4199 0.8462,0.5392 2.0241,1.0006 3.0467,0.7409 0.462,-0.1172 0.8672,-0.2069 1.305,-0.4069 0.1756,-0.0802 0.3343,-0.0821 0.4964,-0.2052 0.1774,-0.135 0.3494,-0.3176 0.5862,-0.2086 0.4364,0.2013 0.8216,0.4161 1.3004,0.5156 0.5509,0.1143 1.1108,0.2063 1.675,0.198 0.5126,-0.007 1.033,-0.0624 1.5272,-0.2016 0.2664,-0.0755 0.5265,-0.1698 0.7878,-0.26 0.2361,-0.0818 0.4427,0.1096 0.6009,0.2577 0.1593,0.1481 0.3287,0.284 0.5078,0.4068 0.1359,0.0936 0.3148,0.1327 0.4373,0.2335 0.1202,0.0982 1.0334,0.3068 1.1828,0.3284 2.5121,0.3638 4.5454,-0.3652 4.991,-0.6095 0.151,-0.0827 1.1907,-0.7631 1.3066,-0.903 0.5743,-0.6909 1.0451,-1.5168 1.2898,-2.3814 0.2477,-0.8748 0.4381,-1.7901 0.2568,-2.6974 -0.0906,-0.4525 -0.1698,-0.864 -0.3731,-1.2831 -0.0869,-0.1788 -0.2209,-0.365 -0.2804,-0.5543 -0.0505,-0.1607 0.3317,-0.4046 0.421,-0.5243 0.5806,-0.7819 0.995,-1.7404 1.4403,-2.6043 0.201,-0.3907 0.4101,-0.7699 0.526,-1.1962 0.0677,-0.2467 0.2759,-0.8092 0.1215,-1.0578 z"
       id="path9"
       inkscape:connector-curvature="0"
       style="fill:#1f1a17" /><path
       class="fil2"
       d="m 26.0722,267.405 c 0.1052,-0.8003 -1.4401,-0.2036 -1.7434,-0.1343 0,-0.7342 -0.01,-1.4402 -0.0897,-2.0787 -0.0836,-0.6738 -0.1462,-1.2914 -0.2679,-1.8999 -0.1191,-0.5949 -0.2439,-1.2257 -0.4917,-1.7211 -0.2546,-0.5087 -0.4509,-1.0269 -0.872,-1.3636 -0.164,-0.1312 -0.3922,-0.2627 -0.6259,-0.313 -0.413,-0.0887 -0.7888,0.0385 -1.0951,0.1565 -0.2222,0.0855 -0.4109,0.1765 -0.5814,0.3129 -0.1506,0.1204 -0.3178,0.2954 -0.4918,0.3801 0.0793,-0.3106 0.0931,-0.6311 0.134,-0.9613 0.0371,-0.2965 0.1199,-0.6211 0.1566,-0.9163 0.0797,-0.641 0.1915,-1.2472 0.3131,-1.8554 0.1183,-0.5904 0.3113,-1.1768 0.4247,-1.7436 0.1228,-0.6151 0.3507,-1.128 0.4694,-1.721 0.0314,-0.158 0.0551,-0.3338 0.0448,-0.492 -0.0156,-0.2345 -0.227,-0.3411 -0.5365,-0.2457 -0.0992,0.0303 -0.2378,0.1616 -0.3355,0.2236 -0.1026,0.0652 -0.2155,0.1682 -0.313,0.2457 -0.4119,0.3297 -0.8807,0.6122 -1.2517,0.9835 -0.74,0.7409 -1.5787,1.4143 -2.2351,2.2355 -0.3248,0.406 -0.6766,0.7815 -0.9611,1.2293 -0.1529,0.24 -0.3122,0.3754 -0.3799,0.7153 -0.0572,0.2859 -0.1616,0.7485 0.1788,0.827 0.335,0.0772 0.5561,-0.2646 0.8494,-0.3129 -0.1574,0.6167 -0.141,1.2629 -0.2684,1.8999 -0.1233,0.6167 -0.2049,1.2308 -0.246,1.9224 -0.0379,0.6435 -0.1627,1.3384 -0.2009,1.9892 -0.0407,0.685 -0.0897,1.3497 -0.0897,2.079 0,0.7289 0.0513,1.4294 0.0897,2.0786 0.04,0.687 0.0739,1.3535 0.2009,1.9897 0.0579,0.2892 0.1188,0.6149 0.1788,0.916 0.0495,0.247 0.2616,0.6772 0.0893,0.8496 -0.0904,0.0903 -0.1907,0.1884 -0.2902,0.2683 -0.0629,0.0502 -0.2317,0.2459 -0.3133,0.2459 -0.1084,0 -0.2482,0.1803 -0.3351,0.2234 -0.0996,0.0498 -0.3325,0.1792 -0.4248,0.1792 -0.1991,0 -0.3641,0.1787 -0.5705,0.1787 -0.3493,0 -0.6636,0.0902 -1.0835,0.0673 -0.5093,-0.0283 -1.0741,-0.1235 -1.4529,-0.3133 -0.5113,-0.2558 -1.0007,-0.4972 -1.2964,-0.9611 -0.3036,-0.4762 -0.4458,-0.9783 -0.626,-1.6094 -0.1598,-0.5583 -0.1934,-1.3359 -0.1118,-1.9897 0.0761,-0.6108 0.2497,-1.2073 0.4472,-1.7209 0.2034,-0.5294 0.4024,-1.0634 0.6928,-1.5197 0.5821,-0.9146 1.1978,-1.7576 1.9447,-2.5037 0.3756,-0.3756 0.7436,-0.7382 1.1623,-1.073 0.1463,-0.1169 0.4889,-0.4246 0.7042,-0.4246 0.3156,0 0.3333,-0.4752 0.3688,-0.76 0.1606,-1.2886 0.3092,-2.5722 0.5589,-3.8225 0.1175,-0.5887 0.2159,-1.2381 0.3354,-1.8328 0.0655,-0.327 0.115,-0.6095 0.1561,-0.9388 0.0161,-0.1276 0.0227,-0.3285 0.0227,-0.4918 0,-0.2278 -0.0049,-0.3266 -0.1567,-0.4023 -0.4078,-0.2042 -0.8401,0.2682 -1.1849,0.2682 -0.1324,0 -0.3389,0.1286 -0.4691,0.1788 -0.1279,0.0493 -0.2616,0.142 -0.3799,0.2013 -0.5062,0.2527 -0.983,0.5134 -1.4755,0.7599 -0.9712,0.4865 -1.8004,1.2036 -2.6152,1.8553 -0.4109,0.3285 -0.7697,0.7247 -1.1401,1.0953 -0.3711,0.3713 -0.7433,0.7499 -1.0727,1.1623 -0.6676,0.8344 -1.2217,1.7343 -1.8106,2.66 -0.1443,0.2272 -0.2363,0.5027 -0.3355,0.7599 -0.0835,0.2166 -0.229,0.5835 -0.1341,0.9166 0.0594,0.2082 0.3374,0.2462 0.5587,0.1343 0.1207,-0.0611 0.2112,-0.1644 0.3133,-0.2461 0.2003,-0.1603 0.444,-0.3101 0.6258,-0.4918 0.0904,-0.0905 0.2436,-0.285 0.3799,-0.313 -0.18,0.1875 -0.2826,0.4701 -0.4247,0.6931 -0.1413,0.2218 -0.2799,0.4707 -0.402,0.715 -0.2426,0.4841 -0.5137,0.9917 -0.671,1.5424 -0.157,0.5494 -0.3703,1.1149 -0.4919,1.721 -0.1171,0.5862 -0.2764,1.2377 -0.3129,1.8556 -0.0776,1.3181 -0.1837,2.8175 -0.0221,4.1126 0.0827,0.6643 0.2436,1.2373 0.4469,1.7663 0.2164,0.5613 0.4664,0.9914 0.7602,1.4528 0.1436,0.2262 0.285,0.4413 0.469,0.6258 0.1863,0.1865 0.3954,0.3501 0.5815,0.5363 0.3577,0.3576 0.8265,0.7043 1.2964,0.9388 0.5874,0.2936 1.2537,0.6115 1.9894,0.7379 0.6105,0.1047 1.4258,0.1451 2.1013,0.0673 0.3187,-0.0368 0.6016,-0.0614 0.8938,-0.112 0.2041,-0.0351 0.4225,-0.1231 0.6263,-0.1789 0.634,-0.1734 1.2173,-0.4615 1.7209,-0.7822 0.4412,-0.2811 0.9103,-0.5974 1.2741,-0.9612 0.3704,-0.3701 0.7671,-0.73 1.0953,-1.1402 0.1647,-0.2055 0.324,-0.4163 0.4918,-0.6258 0.1603,-0.2006 0.2875,-0.4663 0.4694,-0.6482 0.3638,-0.3639 0.6839,-0.8045 1.0061,-1.2071 0.1573,-0.1971 0.3634,-0.3845 0.4022,-0.6929 0.0473,-0.3773 -0.0357,-0.7172 -0.1119,-0.9838 -0.165,-0.578 -0.2535,-1.2045 -0.3351,-1.855 -0.0801,-0.6374 -0.1613,-1.3007 -0.2015,-1.9893 -0.018,-0.311 -0.0221,-0.7037 -0.0221,-1.0507 0,-0.3708 0.0517,-0.6733 0.1339,-0.9612 0.0813,-0.2834 0.1747,-0.5767 0.3578,-0.7599 0.1114,-0.111 0.1946,-0.2052 0.2907,-0.0447 0.0677,0.113 0.1195,0.2395 0.1787,0.3577 0.2494,0.4978 0.2529,1.1723 0.3351,1.833 0.0816,0.6527 0.0946,1.4044 0.1345,2.0789 0.0214,0.3655 0.0241,0.7047 0.0443,1.0501 0.0207,0.3495 -0.0229,0.712 0.0448,1.0508 0.0265,0.1311 0.1483,0.2903 0.2943,0.2903 0.2845,0 0.3317,-0.0887 0.466,-0.2233 0.1861,-0.1865 0.3948,-0.3504 0.581,-0.5365 0.7456,-0.7444 1.6015,-1.3786 2.3471,-2.1237 0.2275,-0.2268 0.4879,-0.4206 0.7153,-0.6481 0.1169,-0.117 0.2428,-0.1899 0.3351,-0.335 0.0583,-0.0913 0.1549,-0.4417 0.0672,-0.5812 z"
       id="path11"
       inkscape:connector-curvature="0"
       style="fill:#e18742" /><path
       class="fil2"
       d="m 63.2224,254.418 c -0.0396,-0.1945 -0.4357,-0.4303 -0.6035,-0.5142 -0.1153,-0.0573 -0.2423,-0.1434 -0.3576,-0.2009 -0.11,-0.055 -0.3244,-0.1788 -0.4469,-0.1788 -0.0762,0 -0.1606,-0.0895 -0.2348,-0.0895 -0.0831,0 -0.2535,-0.0537 -0.3464,-0.0895 -0.1882,-0.0723 -0.4082,-0.1202 -0.6259,-0.1789 -0.2279,-0.0612 -0.5103,-0.1339 -0.813,-0.1339 -0.466,0 -0.8847,-0.0225 -1.3664,-0.0225 -0.3783,0 -0.6512,0.1116 -0.9723,0.1116 -0.1974,0 -0.29,0.178 -0.3576,0.3132 -0.108,0.2162 -0.3744,0.7833 0.134,0.76 -0.1524,0.1682 -0.5255,0.2814 -0.7156,0.4022 -0.2401,0.153 -0.4591,0.278 -0.6705,0.4471 -0.2095,0.1676 -0.4256,0.3619 -0.619,0.576 -0.1215,-0.2599 -0.264,-0.5009 -0.4315,-0.7099 -0.1707,-0.2138 -0.3011,-0.4352 -0.4916,-0.6261 -0.0893,-0.0893 -0.179,-0.1788 -0.2683,-0.2683 -0.0535,-0.0535 -0.2098,-0.2681 -0.2906,-0.2681 -0.1123,0 -0.2233,-0.2234 -0.3356,-0.2234 -0.087,0 -0.2765,-0.1608 -0.3576,-0.2013 -0.33,-0.1654 -0.7627,-0.3105 -1.1844,-0.3575 -0.6768,-0.0757 -1.3769,-0.0261 -1.967,0.0891 -0.3822,0.0748 -0.7467,0.2547 -1.0731,0.3802 -0.2873,0.1104 -0.5579,0.2227 -0.8272,0.3577 -0.1182,0.0592 -0.2286,0.1556 -0.3349,0.2233 -0.0732,0.0466 -0.2837,0.2013 -0.3577,0.2013 -0.0725,0 -0.2541,0.1987 -0.3129,0.2459 -0.0985,0.0787 -0.2009,0.1787 -0.2906,0.2683 -0.0847,0.0846 -0.2048,0.1903 -0.2686,0.2905 -0.0742,0.1169 -0.1014,0.2615 -0.0893,0.4694 0.0086,0.1404 0.0844,0.3666 0.067,0.4694 -0.0191,0.1151 -0.1879,0.2225 -0.2456,0.3128 -0.1494,0.2346 -0.2723,0.4579 -0.38,0.7378 -0.0761,0.1979 -0.1763,0.3361 -0.1566,0.6706 0.0069,0.1151 0.0112,0.2402 0.0446,0.3576 0.052,0.1811 0.1456,0.1706 0.3579,0.2011 -0.1559,0.5447 -0.3355,1.1367 -0.3355,1.8554 0,0.7426 0.0598,1.4179 0.1789,2.0115 0.026,0.129 0.0605,0.2583 0.0995,0.386 -0.1684,0.006 -0.3385,0.0122 -0.5017,-0.006 -0.2815,-0.0309 -0.6335,-0.2608 -0.7825,-0.447 -0.178,-0.2224 -0.2653,-0.4363 -0.3576,-0.7601 -0.161,-0.5625 -0.0992,-1.3726 -0.022,-1.9892 0.0818,-0.6585 0.1386,-1.2748 0.2679,-1.9225 0.1221,-0.6109 0.2864,-1.1853 0.4027,-1.7659 0.063,-0.3173 0.1441,-0.5956 0.2232,-0.8715 0.0624,-0.2181 0.1717,-0.228 0.3796,-0.2908 0.0884,-0.0264 0.1718,-0.0605 0.2463,-0.0893 0.064,-0.0248 0.2012,-0.0895 0.2457,-0.0895 0.2095,0 0.5713,-0.3093 0.7151,-0.4247 0.2082,-0.1663 0.4216,-0.3282 0.6262,-0.4917 0.422,-0.3376 0.6906,-0.7622 1.0285,-1.1846 0.195,-0.2445 0.325,-0.5834 0.4689,-0.8719 0.0762,-0.1523 0.1497,-0.2881 0.2017,-0.4693 0.0302,-0.1061 0.1382,-0.4503 0.0669,-0.559 -0.0965,-0.469 -1.1831,0.067 -1.5135,0.067 -0.2449,0 -0.5867,0.1307 -0.8337,0.2013 -0.2345,0.067 -0.4827,0.1706 -0.7376,0.2237 0.2181,-0.5442 0.3317,-1.1839 0.4917,-1.7436 0.1635,-0.5717 0.3109,-1.143 0.4695,-1.6988 0.1041,-0.3652 0.152,-0.8375 -0.4245,-0.6705 -0.2552,0.0736 -0.5035,0.2674 -0.7156,0.4022 -0.2285,0.1454 -0.4807,0.285 -0.7152,0.4024 -0.1232,0.0616 -0.243,0.1282 -0.3579,0.2011 -0.0716,0.0455 -0.2532,0.2236 -0.335,0.2236 -0.0991,0 -0.2581,0.1743 -0.3356,0.2236 -0.1172,0.0745 -0.2256,0.154 -0.3349,0.2234 -0.1166,0.0739 -0.2233,0.1522 -0.3356,0.2236 -0.0706,0.0448 -0.2621,0.2235 -0.335,0.2235 -0.0735,0 -0.2643,0.1783 -0.3356,0.2234 -0.1066,0.0682 -0.2055,0.1777 -0.3129,0.246 -0.2309,0.1469 -0.4387,0.2996 -0.6706,0.4471 -0.1132,0.0718 -0.3795,0.3801 -0.5142,0.3801 -0.0416,0 -0.24,0.1439 -0.2682,0.1787 -0.0825,0.1038 -0.0904,0.1818 -0.134,0.3353 -0.0611,0.2146 -0.1471,0.5583 0.0223,0.6931 0.1333,0.1062 0.4837,0.0221 0.6555,0.0221 0.3851,0 0.7703,0 1.1552,0 -0.1307,0.2236 -0.2204,0.5814 -0.2906,0.8273 -0.0825,0.2887 -0.1843,0.5557 -0.2683,0.8494 -0.1577,0.5524 -0.3517,1.1305 -0.5143,1.6986 -0.3326,1.1642 -0.5983,2.368 -0.7598,3.6659 -0.0387,0.3079 -0.1156,0.673 -0.1339,0.9835 -0.0116,0.1954 -0.0116,0.3263 -0.0227,0.514 -0.005,0.09 -7e-4,0.159 -0.022,0.2237 -0.0089,0.0276 0.0193,0.1142 0,0.1342 -0.0365,0.0372 -0.1934,0.002 -0.246,0.0223 -0.1756,0.0664 -0.3035,0.537 -0.4026,0.693 -0.1524,0.2398 -0.2754,0.453 -0.4915,0.6257 -0.2047,0.1635 -0.4217,0.3254 -0.6483,0.4696 -0.2588,0.1645 -0.6383,0.339 -1.0058,0.3574 -0.3592,0.0179 -0.6846,-0.0204 -0.9388,-0.0893 -0.1346,-0.0365 -0.3297,-0.1788 -0.4472,-0.1788 -0.2316,0 -0.5133,-0.3568 -0.6479,-0.4917 -0.1711,-0.1711 -0.4476,-0.537 -0.4922,-0.8047 0.1516,0.0755 0.332,0.1269 0.5145,0.1788 0.0802,0.023 0.2299,0.0893 0.3126,0.0893 0.1671,0 0.4515,0.0225 0.6577,0.0225 0.5205,0 0.9546,-0.136 1.3093,-0.3131 0.5345,-0.267 0.9664,-0.4978 1.3191,-0.9387 0.1651,-0.2063 0.3458,-0.3963 0.4915,-0.6259 0.1498,-0.2354 0.2279,-0.48 0.3356,-0.76 0.0979,-0.256 0.2079,-0.5376 0.2906,-0.8271 0.0769,-0.2693 0.1157,-0.6266 0.1341,-0.9387 0.0387,-0.6569 0.0275,-1.4936 -0.0897,-2.079 -0.1196,-0.5987 -0.3189,-1.1624 -0.6036,-1.6094 -0.2738,-0.4306 -0.6919,-0.8379 -1.1621,-1.0729 -0.3015,-0.1506 -0.6335,-0.3576 -1.0757,-0.3576 -0.1472,0 -0.2651,-0.0354 -0.4444,-0.0447 -0.1648,-0.008 -0.3711,0 -0.5565,0 -0.2673,0 -0.5724,0.0849 -0.8295,0.1342 -0.1987,0.0381 -0.4433,0.131 -0.6255,0.2011 -0.1186,0.0457 -0.3383,0.1787 -0.447,0.1787 -0.0916,0 -0.289,0.1331 -0.3802,0.179 -0.0884,0.0439 -0.2569,0.2011 -0.3578,0.2011 -0.125,0 -0.2164,0.2234 -0.3352,0.2234 -0.1079,0 -0.2134,0.2459 -0.3129,0.2459 -0.1516,0 -0.4552,0.4555 -0.5587,0.559 -0.1339,0.1341 -0.2236,0.3131 -0.3577,0.447 -0.1148,0.1149 -0.3217,0.2662 -0.3577,0.4469 -0.0509,0.2538 -0.0114,0.5192 0.0449,0.7154 0.1083,0.3801 0.2989,0.1288 0.5361,0.0895 -0.247,0.4973 -0.478,0.9823 -0.6031,1.6094 -0.1131,0.5654 -0.2727,1.1706 -0.3133,1.8552 -0.0398,0.6769 -0.0632,1.3755 -0.0223,2.079 0.0126,0.2124 0.0796,0.331 -0.0892,0.4692 -0.1416,0.1159 -0.1414,0.1477 -0.2014,0.3575 -0.0873,0.3053 -0.1218,0.6012 -0.2458,0.8495 -0.265,0.5308 -0.6121,0.8097 -1.0953,1.1173 -0.2761,0.1764 -0.786,0.3356 -1.1864,0.3356 -0.3929,0 -0.6625,-0.006 -0.9372,-0.1117 -0.1129,-0.0433 -0.2547,-0.1356 -0.3576,-0.2013 -0.2931,-0.1861 -0.6374,-0.5465 -0.7599,-0.894 0.1234,0.005 0.2159,0.0395 0.3579,0.0672 0.1289,0.0253 0.3595,0.0446 0.5567,0.0446 0.2497,0 0.5285,-0.0734 0.7395,-0.1341 0.3305,-0.0945 0.6349,-0.2372 0.8941,-0.4022 0.4555,-0.2901 0.7832,-0.6852 1.0726,-1.1402 0.2679,-0.4201 0.5176,-0.9994 0.6263,-1.5423 0.1192,-0.5955 0.1735,-1.3385 0.0893,-2.0118 -0.0414,-0.331 -0.0767,-0.672 -0.1341,-0.9612 -0.0636,-0.318 -0.1414,-0.5958 -0.2682,-0.8495 -0.1222,-0.2436 -0.2388,-0.4885 -0.4024,-0.6926 -0.0816,-0.1018 -0.1661,-0.2089 -0.2681,-0.2907 -0.0598,-0.0478 -0.2381,-0.246 -0.3132,-0.246 -0.0613,0 -0.2772,-0.1611 -0.3577,-0.2011 -0.169,-0.0847 -0.3558,-0.1788 -0.5978,-0.1788 -0.2845,0 -0.7625,-0.0223 -1.0826,-0.0223 -0.2119,0 -0.4726,0.1151 -0.6441,0.1788 -0.5975,0.2225 -1.028,0.4913 -1.4752,0.8495 -0.4174,0.334 -0.6767,0.7882 -1.0505,1.1623 -0.1903,0.1901 -0.3199,0.3906 -0.4696,0.6259 -0.0796,0.1251 -0.155,0.1888 -0.1788,0.3799 -0.0229,0.1828 0.0138,0.3591 0.0448,0.5141 0.0103,0.0523 0.0161,0.1565 0.0445,0.2013 0.0398,0.0625 0.1187,0.0791 0.1343,0.1564 0.0112,0.0561 -0.1504,0.3063 -0.1788,0.3799 -0.1015,0.2633 -0.2095,0.5553 -0.2684,0.8494 -0.1184,0.5912 -0.1747,1.2953 -0.134,1.9894 0.0397,0.6785 0.1731,1.2923 0.2906,1.8776 0.1161,0.5792 0.3849,1.1276 0.6258,1.6096 0.252,0.5044 0.6066,0.8804 0.9389,1.2965 0.1548,0.1937 0.3923,0.3795 0.6036,0.5138 0.1188,0.0759 0.2267,0.1363 0.3574,0.2014 0.1014,0.0506 0.2975,0.2009 0.4246,0.2009 0.1242,0 0.3952,0.1278 0.5366,0.179 0.1945,0.0709 0.4966,0.1435 0.7376,0.1566 0.61,0.0329 1.0526,-0.1057 1.4754,-0.2686 0.5486,-0.2105 0.9829,-0.5576 1.3635,-0.9385 0.3742,-0.3747 0.641,-0.7458 0.8941,-1.2518 0.1184,-0.237 0.19,-0.5086 0.2681,-0.7822 0.0785,-0.2745 0.1276,-0.6114 0.1341,-0.9389 0.1838,0.1654 0.2225,0.5249 0.3577,0.7376 0.1302,0.2043 0.2975,0.4762 0.4695,0.6483 0.1843,0.1842 0.355,0.3956 0.5588,0.5589 0.1324,0.106 0.4682,0.4693 0.6483,0.4693 0.0717,0 0.2962,0.1579 0.3799,0.2012 0.1485,0.0765 0.2579,0.1245 0.4473,0.1787 0.2217,0.0637 0.4282,0.1562 0.732,0.1562 0.1188,0 0.3263,0.045 0.5076,0.045 0.2151,0 0.3718,-0.0223 0.5993,-0.0223 0.1454,0 0.4906,-0.0966 0.6419,-0.1566 0.1574,-0.0624 0.3626,-0.1429 0.5143,-0.201 0.2939,-0.113 0.5576,-0.2226 0.8045,-0.38 0.4256,-0.2708 0.8699,-0.6715 1.1401,-1.0957 0.1445,-0.2266 0.2581,-0.4709 0.38,-0.7149 0.0565,-0.1126 0.1103,-0.2597 0.1567,-0.38 0.0502,-0.1311 0.0429,-0.3335 0.1339,-0.4248 0.0066,-0.007 -7e-4,-0.0568 0,-0.067 0.0151,0 0.0299,0 0.045,0 0.0122,0.2926 0.1717,0.5993 0.2679,0.8491 0.0999,0.2599 0.2604,0.4926 0.4026,0.7156 0.1277,0.201 0.3504,0.4325 0.5365,0.5812 0.1071,0.0857 0.1912,0.1685 0.313,0.246 0.0778,0.0496 0.2355,0.2236 0.3349,0.2236 0.0917,0 0.2883,0.1326 0.3799,0.1783 0.1482,0.0742 0.3883,0.1793 0.5813,0.1793 0.1419,0 0.2502,0.0443 0.4381,0.0443 0.1934,0 0.416,-0.0443 0.5454,-0.0443 0.2135,0 0.4403,-0.1143 0.6035,-0.1793 0.5708,-0.2259 1.0137,-0.4988 1.4081,-0.8938 0.0877,-0.0877 0.1629,-0.1806 0.2334,-0.2768 0.159,0.175 0.36,0.3113 0.5268,0.4777 0.1717,0.1718 0.4722,0.337 0.6929,0.447 0.3332,0.1671 0.8633,0.2919 1.274,0.3356 0.3806,0.0407 0.8078,0 1.1723,0 0.2342,0 0.5166,-0.1564 0.7166,-0.1564 0.1845,0 0.3855,-0.1792 0.5477,-0.1792 0.127,0 0.3454,-0.1485 0.4472,-0.201 0.2279,-0.1176 0.4371,-0.2476 0.6342,-0.3875 0.264,0.3251 0.5349,0.6391 0.8632,0.9018 0.0585,0.0469 0.2177,0.2682 0.2907,0.2682 0.0968,0 0.2032,0.246 0.3129,0.246 0.0722,0 0.2729,0.1589 0.3576,0.2012 0.115,0.0572 0.3066,0.201 0.4584,0.201 0.1445,0 0.3904,0.1337 0.5478,0.1789 0.1959,0.0559 0.4954,0.1564 0.722,0.1564 0.3681,0 0.8534,-0.0447 1.1457,-0.0447 0.2512,0 0.5129,-0.0811 0.7248,-0.1567 1.1765,-0.4176 1.8838,-1.1282 2.4141,-2.1901 0.2382,-0.4762 0.4394,-1.0771 0.5146,-1.6767 0.0384,-0.3102 0.0384,-0.6747 0,-0.9835 -0.0378,-0.3004 -0.1303,-0.6176 -0.2459,-0.8496 -0.247,-0.4941 -0.5454,-0.9478 -0.9165,-1.3187 -0.3731,-0.3724 -0.8124,-0.6778 -1.1848,-1.0507 -0.172,-0.1722 -0.3987,-0.3838 -0.4919,-0.6256 -0.068,-0.177 -0.0059,-0.2456 0.134,-0.3131 0.2525,-0.1211 0.7174,-0.0223 1.0326,-0.0223 0.3922,0 0.7635,0.1698 1.0239,0.3354 0.1137,0.0722 0.1859,0.182 0.313,0.2459 0.1839,0.0923 0.3941,0.0102 0.4916,-0.112 0.1602,-0.1998 0.2659,-0.5093 0.3799,-0.7375 0.1241,-0.2481 0.2552,-0.4871 0.3802,-0.7375 0.2443,-0.4895 0.559,-0.953 0.7599,-1.4754 0.0536,-0.1384 0.2493,-0.5681 0.1566,-0.7154 z m -26.7786,1.4306 c 0.2877,-0.1831 0.7587,-0.3187 1.0732,-0.067 0.2138,0.1711 0.3366,0.3704 0.3799,0.7154 0.0384,0.3101 -0.0643,0.6423 -0.179,0.8715 -0.0577,0.1156 -0.1352,0.2474 -0.2236,0.3356 -0.0535,0.0535 -0.2318,0.2458 -0.3129,0.2458 -0.0677,0 -0.1192,0.0893 -0.1967,0.0893 -0.1557,0 -0.3107,-0.0223 -0.4516,-0.0223 -0.1257,0 -0.3365,-0.1417 -0.4022,-0.2237 -0.1109,-0.1385 -0.1452,-0.7822 -0.3576,-0.7822 -0.0942,0 -0.2975,0.0573 -0.3355,0.0447 0.258,-0.5146 0.5336,-0.9064 1.006,-1.2071 z m -9.4553,2.8388 c 0.0888,-0.2399 0.3049,-0.4539 0.4918,-0.6036 0.0968,-0.0775 0.2002,-0.1878 0.3132,-0.2457 0.1736,-0.089 0.4837,-0.1756 0.7151,-0.1118 0.569,0.1568 0.4756,1.1059 0.2458,1.5647 -0.142,0.2841 -0.7735,0.5897 -1.0954,0.268 -0.1239,-0.1242 -0.19,-0.2733 -0.2457,-0.4692 -0.0644,-0.2254 -0.1158,-0.4213 -0.4248,-0.4024 z m 25.2814,1.9448 c -0.3054,0.4796 -0.6663,0.8001 -1.2071,1.0505 -0.3983,0.1842 -1.0568,0.115 -1.4088,-0.0672 -0.2324,-0.1203 -0.371,-0.3848 -0.4915,-0.6257 -0.1117,-0.2236 -0.2247,-0.5303 -0.246,-0.8493 -0.0207,-0.3128 0.0808,-0.6745 0.1567,-0.9389 0.1572,-0.5507 0.4058,-1.0095 0.7598,-1.3635 0.1928,-0.1927 0.4082,-0.3201 0.6932,-0.4248 0.1274,-0.0469 0.286,-0.118 0.3349,-0.2458 0.0584,-0.1517 -0.019,-0.3098 -0.0443,-0.4471 0.3602,-0.0643 0.6719,0.1793 0.8939,0.2906 0.2262,0.1132 0.3415,0.2818 0.4915,0.4693 0.1422,0.1776 0.2631,0.3496 0.3356,0.6035 0.0375,0.1311 0.0591,0.2281 0.0893,0.3799 0.0164,0.0823 0.0227,0.3179 0.0673,0.4027 0,0.3502 -0.0532,0.6773 -0.1343,0.9609 -0.0807,0.2833 -0.1451,0.5767 -0.2902,0.8049 z m 4.5411,2.7047 c -0.3074,0 -0.5602,-0.2954 -0.7638,-0.4248 -0.2499,-0.1591 -0.3813,-0.3364 -0.5813,-0.5366 -0.1192,-0.119 -0.2229,-0.2536 -0.3283,-0.3858 0.0814,-0.1946 0.1605,-0.3931 0.239,-0.5975 0.1005,-0.2612 0.1849,-0.5398 0.2545,-0.8286 0.4972,0.4767 1.0554,0.8902 1.4889,1.4322 0.3422,0.4272 0.6915,1.3411 -0.309,1.3411 z"
       id="path13"
       inkscape:connector-curvature="0"
       style="fill:#e18742" /><path
       class="fil3"
       d="m 40.6687,261.168 c 0.0269,-0.1921 -0.0834,-0.3335 -0.112,-0.5141 -0.0807,0 -0.1727,0.3619 -0.2186,0.451 -0.0936,0.1815 -0.2177,0.3372 -0.3596,0.4834 -0.1948,0.2015 -0.4062,0.3367 -0.602,0.5251 -0.5893,0.5678 -1.4139,0.6808 -2.1889,0.6251 -0.8018,-0.0579 -1.5203,-0.5115 -1.9236,-1.2159 -0.1957,-0.3413 -0.3316,-0.7181 -0.4679,-1.0864 -0.1484,-0.4002 -0.2413,-0.7751 -0.2749,-1.2352 0.5172,0.645 1.0285,1.0818 1.8912,1.1226 0.8583,0.0407 1.7577,-0.2108 2.4204,-0.7659 1.4149,-1.1853 1.7387,-3.3049 1.369,-5.0242 -0.1659,-0.7732 -0.6088,-1.5665 -1.2698,-2.026 -0.6656,-0.4627 -1.4406,-0.632 -2.2455,-0.5414 -0.8278,0.0929 -1.5456,0.3712 -2.2835,0.7507 -0.3986,0.2054 -0.7352,0.5003 -1.0523,0.8135 -0.2781,0.2744 -0.6687,0.5733 -0.841,0.9319 0.2922,-0.0484 0.5985,-0.3131 0.8796,-0.4173 0.3268,-0.121 0.6649,-0.3435 1.0203,-0.3875 -0.242,0.3141 -0.5627,0.548 -0.8001,0.8734 -0.276,0.3781 -0.528,0.7872 -0.7287,1.2105 -0.3853,0.8137 -0.5756,1.7727 -0.6713,2.6626 -0.1965,1.8233 -0.0495,3.9738 1.1212,5.4837 1.1673,1.5056 3.127,1.9072 4.8405,1.1555 0.813,-0.3569 1.475,-0.8862 1.9153,-1.674 0.2069,-0.3693 0.3747,-0.7879 0.4782,-1.1981 0.0607,-0.2423 0.2495,-0.7692 0.104,-1.003 z m -6.1475,-2.5482 c -0.0607,-0.54 0.1254,-1.2186 0.3147,-1.7197 0.2018,-0.5346 0.482,-1.09 0.9374,-1.4544 0.6805,-0.5452 1.8284,-0.9151 2.2136,0.1442 0.1843,0.5063 0.2686,1.1178 0.0889,1.6366 -0.0686,0.199 -0.3893,0.9909 -0.6708,0.9909 -0.1511,0 -0.2981,0.2148 -0.4547,0.2527 -0.2513,0.0605 -0.5534,0.0607 -0.7928,-0.0463 -0.2091,-0.0936 -0.4259,-0.2843 -0.5079,-0.5036 -0.0257,-0.0691 -0.1111,-0.4515 -0.1892,-0.4628 -0.0759,-0.0112 -0.3369,0.4329 -0.398,0.5183 -0.0657,0.0925 -0.4078,0.6826 -0.5412,0.6441 z"
       id="path15"
       inkscape:connector-curvature="0"
       style="fill:#eee817" /><path
       class="fil3"
       d="m 31.8391,261.615 c 0.0364,0.3228 -0.1081,0.6745 -0.201,0.9165 -0.0989,0.2569 -0.288,0.4714 -0.4474,0.6706 -0.3346,0.4189 -0.87,0.7592 -1.4526,0.9167 -0.4751,0.1284 -1.1327,0.2177 -1.6095,0.0444 -0.317,-0.1146 -0.569,-0.2141 -0.8046,-0.4019 -0.397,-0.3179 -0.6793,-0.8223 -0.9164,-1.2968 -0.1187,-0.2374 -0.2382,-0.521 -0.3129,-0.7823 -0.0889,-0.3115 -0.0938,-0.6272 -0.1788,-0.9612 0.1853,0.1679 0.2454,0.5192 0.4021,0.7153 0.1259,0.1572 0.45,0.447 0.7088,0.447 0.0809,0 0.1847,0.0895 0.2654,0.0895 0.2272,0 0.4668,-0.0223 0.6617,-0.0223 0.252,0 0.4624,-0.1206 0.6665,-0.1788 0.3113,-0.089 0.582,-0.2247 0.8044,-0.4024 0.4274,-0.342 0.7487,-0.7151 1.0062,-1.2293 0.234,-0.4679 0.4538,-1.0283 0.4917,-1.6768 0.0418,-0.7064 0.0023,-1.4341 -0.1563,-1.9892 -0.1669,-0.5844 -0.4101,-1.0137 -0.7823,-1.3859 -0.198,-0.1979 -0.4021,-0.3123 -0.6705,-0.447 -0.444,-0.222 -1.2474,-0.1564 -1.7658,-0.0671 -0.6519,0.1119 -1.1755,0.4573 -1.6097,0.8047 -0.3183,0.2547 -0.5496,0.5976 -0.8046,0.9165 -0.2474,0.309 -0.5587,0.6482 -0.7377,1.0058 0.4286,-0.2808 0.879,-0.5078 1.3856,-0.7152 -0.3277,0.4121 -0.6943,0.7978 -0.9835,1.2518 -0.2937,0.462 -0.4591,1.026 -0.6257,1.6093 -0.0765,0.2679 -0.1371,0.5862 -0.1567,0.9165 -0.0207,0.3546 -0.0209,0.6901 0,1.0506 0.0368,0.6205 0.207,1.2798 0.4026,1.7881 0.2071,0.5381 0.4074,1.0632 0.7376,1.475 0.3434,0.4299 0.6663,0.7976 1.0953,1.1408 0.1034,0.082 0.2245,0.1527 0.3354,0.2229 0.0796,0.0513 0.2593,0.2013 0.3572,0.2013 0.1254,0 0.3084,0.1665 0.4475,0.2013 0.2033,0.0506 0.4507,0.1563 0.6705,0.1563 0.1831,0 0.4377,-0.0223 0.5821,-0.0223 0.19,0 0.3189,-0.067 0.435,-0.067 0.1766,0 0.3703,-0.1218 0.5251,-0.1786 0.2765,-0.1022 0.4867,-0.3018 0.7154,-0.4476 0.4596,-0.292 0.7585,-0.726 1.0505,-1.1844 0.1469,-0.2309 0.2313,-0.4958 0.3133,-0.7823 0.0799,-0.28 0.1787,-0.5588 0.1787,-0.9164 0,-0.2235 0,-0.4471 0,-0.6706 0,-0.1854 0.061,-0.5827 -0.0226,-0.7155 z m -5.9232,-1.1398 c 0,-0.3462 0.0299,-0.6859 0.0891,-0.9836 0.058,-0.2883 0.1256,-0.6083 0.246,-0.8494 0.2477,-0.4962 0.5038,-0.9662 0.9163,-1.2964 0.2172,-0.1735 0.5737,-0.3801 0.9372,-0.3801 0.3397,0 0.4564,0.0418 0.6277,0.1788 0.1206,0.0967 0.1722,0.1657 0.2458,0.313 0.2103,0.4203 0.2775,1.4117 0.0448,1.8776 -0.2084,0.4167 -0.5608,0.8271 -1.1623,0.8271 -0.3906,0 -0.5648,-0.1433 -0.7154,-0.38 -0.0517,-0.0808 -0.1187,-0.1694 -0.1566,-0.2683 -0.0417,-0.1086 -0.0478,-0.2709 -0.1119,-0.3576 -0.1182,0.2383 -0.3059,0.4667 -0.469,0.6707 -0.0966,0.1205 -0.3895,0.6504 -0.4917,0.6482 z"
       id="path17"
       inkscape:connector-curvature="0"
       style="fill:#eee817" /><path
       class="fil3"
       d="m 20.8642,253.211 c -0.0248,0.0246 -0.0245,0.0242 0,0 z"
       id="path19"
       inkscape:connector-curvature="0"
       style="fill:#eee817" /><path
       class="fil3"
       d="m 5.4629,262.822 c -0.0242,0.0244 -0.0247,0.0248 0,0 z"
       id="path21"
       inkscape:connector-curvature="0"
       style="fill:#eee817" /><path
       class="fil3"
       d="m 25.2227,267.494 c -0.0475,0.0427 -0.4053,0.0893 -0.4696,0.0893 -0.1205,0 -0.2541,0.0807 -0.3573,0.1116 -0.1969,0.0591 -0.3742,0.1258 -0.559,0.2017 0,-0.6886 0.0164,-1.4642 -0.0222,-2.1239 -0.0414,-0.7094 -0.1663,-1.3057 -0.2459,-1.9447 -0.0747,-0.6006 -0.2444,-1.2158 -0.447,-1.7433 -0.1949,-0.5074 -0.4496,-1.0528 -0.805,-1.4084 -0.0865,-0.0867 -0.1998,-0.1895 -0.3127,-0.2458 -0.2095,-0.1048 -0.4279,-0.0895 -0.7154,-0.0895 -0.3267,0 -0.6496,0.2389 -0.8716,0.3801 -0.2142,0.1365 -0.4481,0.314 -0.6258,0.4917 -0.1793,0.1791 -0.3306,0.4342 -0.5365,0.5813 -0.0219,0.0152 -0.0434,0.0479 -0.067,0.067 0.0814,-0.6497 0.167,-1.312 0.2458,-1.9447 0.0789,-0.6344 0.2141,-1.2436 0.2905,-1.8553 0.0747,-0.5955 0.1969,-1.226 0.3578,-1.7883 0.1689,-0.5909 0.2561,-1.1987 0.4248,-1.788 0.0574,-0.2018 0.0995,-0.4044 0.1561,-0.6036 0.0549,-0.1911 0.1897,-0.4302 0.179,-0.6483 -0.4619,0.232 -0.8771,0.6436 -1.2743,0.9613 -0.4113,0.3293 -0.8137,0.6795 -1.1844,1.0505 -0.7514,0.7513 -1.4767,1.4875 -2.1461,2.3247 -0.2244,0.2806 -0.5622,0.6069 -0.6929,0.9613 0.2169,-0.1083 0.4374,-0.2299 0.6483,-0.3353 0.1966,-0.0984 0.4329,-0.2781 0.6481,-0.3129 -0.1069,0.2672 -0.1232,0.6398 -0.1788,0.9165 -0.0644,0.3217 -0.1157,0.613 -0.1562,0.9384 -0.0805,0.6394 -0.184,1.2464 -0.2685,1.9226 -0.157,1.2532 -0.313,2.6481 -0.313,4.0234 0,0.7174 0.0273,1.425 0.067,2.1012 0.0403,0.6817 0.0721,1.3864 0.2014,2.034 0.1199,0.6002 0.1728,1.2642 0.3352,1.8333 0.0655,0.2289 0.2363,0.6961 0.1566,0.8715 -0.0949,0.2085 -0.3986,0.3983 -0.5591,0.5589 -0.1776,0.178 -0.389,0.3779 -0.6031,0.5142 -0.1743,0.1103 -0.5024,0.4023 -0.738,0.4023 -0.2088,0 -0.3758,0.1786 -0.6035,0.1786 -0.1008,0 -0.2221,0.0893 -0.3068,0.0893 -0.2141,0 -0.3627,0.0227 -0.5608,0.0227 -0.3989,0 -0.7367,-0.007 -1.0771,-0.067 -0.0932,-0.0171 -0.2234,-0.0897 -0.3352,-0.0897 -0.1124,0 -0.2179,-0.0893 -0.3017,-0.0893 -0.268,0 -0.6211,-0.2784 -0.8161,-0.4025 -0.2413,-0.1534 -0.4087,-0.3192 -0.6032,-0.514 -0.4013,-0.4013 -0.5545,-0.8594 -0.7824,-1.4527 -0.1968,-0.5126 -0.2963,-1.172 -0.3354,-1.833 -0.0223,-0.3776 0.0034,-0.7421 0.0448,-1.0731 0.0424,-0.3415 0.0999,-0.6564 0.1562,-0.9389 0.1207,-0.6035 0.293,-1.1664 0.5366,-1.654 0.2538,-0.5083 0.4672,-0.9923 0.7601,-1.4527 0.5703,-0.8967 1.2546,-1.7026 1.9895,-2.4367 0.3819,-0.3817 0.7142,-0.7512 1.1847,-1.0505 0.1082,-0.0689 0.217,-0.1484 0.3354,-0.2238 0.0796,-0.0507 0.338,-0.14 0.3799,-0.2232 0.0566,-0.1138 0.0509,-0.3402 0.0669,-0.4694 0.0202,-0.1623 0.0479,-0.3372 0.067,-0.4918 0.1556,-1.2463 0.3409,-2.5316 0.5815,-3.7331 0.1451,-0.7268 0.2929,-1.4935 0.402,-2.2128 -0.2482,0.014 -0.4411,0.1104 -0.6258,0.1788 -0.1355,0.0504 -0.3539,0.1788 -0.4806,0.1788 -0.1202,0 -0.3156,0.1325 -0.4358,0.1788 -0.1164,0.0448 -0.2455,0.1454 -0.3577,0.2012 -0.4964,0.2481 -1.0155,0.4676 -1.4751,0.76 -0.45,0.2861 -0.9291,0.5645 -1.3413,0.894 -0.2129,0.1701 -0.4356,0.3016 -0.626,0.4917 -0.1801,0.1804 -0.4056,0.3558 -0.6035,0.5144 -0.8111,0.6495 -1.5407,1.4677 -2.1906,2.2797 -0.6687,0.8359 -1.2175,1.7431 -1.721,2.7495 -0.075,0.1498 -0.2173,0.3394 -0.246,0.5142 0.2187,-0.1058 0.4351,-0.3458 0.6036,-0.5142 0.18,-0.18 0.4279,-0.3333 0.6258,-0.4917 0.1068,-0.0853 0.2182,-0.1491 0.3355,-0.2234 0.0719,-0.046 0.2201,-0.2459 0.3129,-0.2459 0.0719,0 0.2639,-0.1781 0.3349,-0.2236 0.071,-0.0448 0.2256,-0.2459 0.313,-0.2459 0.1555,0 0.3014,-0.3129 0.4696,-0.3129 0.1144,0 0.3699,-0.2496 0.4694,-0.313 0.3268,-0.208 0.6843,-0.3865 1.0283,-0.5587 -0.0341,0.0867 -0.2184,0.2107 -0.2906,0.2682 -0.1046,0.0838 -0.2192,0.1518 -0.313,0.2459 -0.1865,0.1863 -0.35,0.3949 -0.5365,0.5812 -0.1872,0.1873 -0.347,0.3947 -0.5139,0.6035 -0.1564,0.1951 -0.36,0.3966 -0.4918,0.6036 -0.2872,0.4505 -0.5587,0.9067 -0.8493,1.3634 -0.29,0.4554 -0.5107,0.9762 -0.7602,1.475 -0.2417,0.4831 -0.4469,1.039 -0.6035,1.587 -0.1621,0.5681 -0.3023,1.1539 -0.4248,1.7661 -0.121,0.6058 -0.2236,1.2875 -0.2236,1.9669 0,0.7198 -0.0188,1.4206 0.0225,2.1239 0.0356,0.6052 0.2088,1.2626 0.4022,1.7657 0.2018,0.5244 0.4289,1.0475 0.7154,1.4977 0.2918,0.4581 0.7206,0.7658 1.0953,1.1398 0.1906,0.1905 0.4128,0.3208 0.626,0.4916 0.1015,0.0814 0.2241,0.153 0.3351,0.2239 0.0716,0.0454 0.2831,0.2011 0.3578,0.2011 0.1106,0 0.3001,0.1618 0.4024,0.2009 0.1417,0.0548 0.3297,0.1793 0.4803,0.1793 0.1646,0 0.3852,0.13 0.5481,0.1783 0.1848,0.0555 0.5349,0.1566 0.711,0.1566 0.4236,0 0.7783,0.045 1.235,0.045 0.3214,0 0.5535,-0.0896 0.8951,-0.0896 0.1973,0 0.4522,-0.1563 0.664,-0.1563 0.2463,0 0.4283,-0.179 0.6522,-0.179 0.1575,0 0.332,-0.1232 0.4696,-0.1786 0.0998,-0.0405 0.2955,-0.2016 0.4021,-0.2016 0.121,0 0.2331,-0.2011 0.3576,-0.2011 0.1014,0 0.2592,-0.175 0.3356,-0.2232 0.4683,-0.2982 0.8485,-0.6255 1.2293,-1.0059 0.4109,-0.4108 1.7072,-1.9797 2.1012,-2.4364 0.1693,-0.1965 0.3297,-0.4237 0.4918,-0.6263 0.1393,-0.1737 0.4622,-0.3855 0.4247,-0.6478 -0.0441,-0.3061 -0.1609,-0.5921 -0.2015,-0.9166 -0.0766,-0.6107 -0.2103,-1.2353 -0.2902,-1.8776 -0.0816,-0.6534 -0.1377,-1.325 -0.1788,-2.0343 -0.0403,-0.6885 0.0245,-1.4497 0.1788,-1.9892 0.085,-0.2986 0.1665,-0.5524 0.3127,-0.7823 0.1268,-0.1996 0.3719,-0.5142 0.6823,-0.5142 0.6076,0 0.7188,0.9359 0.8599,1.4308 0.1613,0.5644 0.2084,1.2823 0.246,1.9222 0.0644,1.0869 0.1118,2.1423 0.1118,3.3081 0.8238,-0.6624 1.5667,-1.4186 2.3915,-2.0786 0.134,-0.1074 0.2593,-0.2368 0.3803,-0.3576 0.0548,-0.0552 0.3375,-0.3356 0.4021,-0.3356 0.0644,0 0.3474,-0.2805 0.4026,-0.3353 0.1049,-0.1047 0.3113,-0.2285 0.3799,-0.3576 -0.1192,0 -0.2382,0 -0.3577,0 z M 9.9781,259.6705 c 0.0246,0.0244 0.0246,0.0244 0,0 z"
       id="path23"
       inkscape:connector-curvature="0"
       style="fill:#eee817" /><path
       class="fil3"
       d="m 62.7529,254.641 c -0.1416,-0.3647 -0.6647,-0.456 -0.9848,-0.579 -0.5297,-0.2033 -1.041,-0.4563 -1.6081,-0.5385 -0.5181,-0.0752 -1.0642,-0.0895 -1.5873,-0.0871 -0.3188,0.002 -1.0016,-0.0852 -1.2738,0.1094 0.3589,-0.0164 0.6591,0.2453 0.9888,0.3428 0.2882,0.0853 0.6561,0.1617 0.8665,0.3947 -1.5631,0 -3.3898,0.7749 -4.145,2.1812 -0.152,-0.4105 -0.3412,-0.8032 -0.5544,-1.1527 -0.4988,-0.82 -1.1562,-1.4216 -2.0595,-1.7522 -1.0304,-0.3775 -2.3045,-0.1668 -3.3114,0.1694 -0.9059,0.3026 -1.8818,0.8341 -2.4919,1.6051 0.3345,-0.0777 0.6399,-0.2371 0.9634,-0.3463 0.3083,-0.1039 0.6804,-0.1232 1.0035,-0.1232 -0.1839,0.2047 -0.4896,0.2584 -0.7148,0.4022 -0.2986,0.19 -0.5849,0.4045 -0.8499,0.639 -0.4183,0.3702 -1.0445,0.9939 -1.1398,1.5739 0.4922,-0.3369 1.0137,-0.9499 1.6318,-1.0505 -0.5649,0.7053 -1.0641,1.3787 -1.3445,2.2515 -0.2807,0.8731 -0.285,1.8846 -0.1044,2.7774 0.0914,0.4491 0.2559,0.9018 0.4807,1.3261 -0.255,0.11 -0.5083,0.1811 -0.8024,0.1858 -0.6003,0.009 -1.3109,-0.3527 -1.6229,-0.8727 -0.3822,-0.637 -0.314,-1.4506 -0.2725,-2.1588 0.0496,-0.8537 0.1757,-1.6817 0.3427,-2.5196 0.1629,-0.8201 0.3288,-1.6402 0.5367,-2.4504 0.0741,-0.2904 0.1152,-0.6288 0.2225,-0.907 0.0897,-0.232 0.5284,-0.2403 0.7313,-0.3131 1.5329,-0.5507 2.4582,-1.8212 3.1515,-3.2204 -0.0594,-0.005 -0.1192,-0.005 -0.1787,0 -0.2101,0.1103 -0.4663,0.1096 -0.6944,0.1573 -0.2641,0.0553 -0.5084,0.1809 -0.7776,0.2154 -0.5517,0.0706 -1.065,0.3175 -1.6127,0.4322 0.2748,-0.6832 0.3852,-1.4349 0.5901,-2.1412 0.2062,-0.7103 0.3411,-1.4884 0.617,-2.1728 -0.24,0.0389 -0.4456,0.2173 -0.639,0.3513 -0.2496,0.1724 -0.5205,0.3179 -0.7917,0.4531 -0.5974,0.2984 -1.1487,0.7197 -1.6994,1.0957 -0.4186,0.2861 -0.8688,0.5663 -1.2632,0.8754 -0.3156,0.2478 -0.8194,0.463 -1.0607,0.7784 0.6853,0 1.371,0 2.0562,0 -0.7335,1.7255 -1.3065,3.5296 -1.7088,5.3614 -0.4019,1.8349 -0.6377,3.8234 -0.3497,5.6909 0.1268,0.8218 0.4424,1.6381 0.9638,2.2904 0.2256,0.2818 0.4814,0.5586 0.7582,0.7913 0.2413,0.2036 0.5224,0.2467 0.8059,0.3508 0.7644,0.2795 1.8037,-0.0874 2.4103,-0.5645 0.3309,-0.2607 0.5867,-0.5796 0.7874,-0.9467 0.5953,0.7385 1.4126,1.2787 2.3866,1.3499 0.2397,0.0175 0.484,0.005 0.7244,0.005 0.1806,0 0.3464,-0.0673 0.5215,-0.0673 0.2163,0 0.4068,-0.1044 0.615,-0.1445 0.1917,-0.0371 0.353,-0.043 0.5342,-0.1309 0.8394,-0.4089 1.4806,-0.9028 2.0714,-1.6225 0.6042,-0.7369 1.038,-1.6439 1.2941,-2.5588 0.0802,-0.2888 0.1347,-0.5792 0.1827,-0.8729 0.3313,0.383 0.7328,0.7204 1.096,1.0287 0.6532,0.5549 1.7315,1.4873 1.4136,2.4591 -0.0761,0.2316 -0.3384,0.7244 -0.6254,0.7244 -0.1892,0 -0.336,0.0847 -0.5426,0.0485 -0.2048,-0.035 -0.4216,-0.2272 -0.6199,-0.2272 -0.1527,0 -0.3294,-0.2198 -0.4407,-0.3068 -0.2138,-0.167 -0.3941,-0.3386 -0.568,-0.5472 -0.1327,-0.1591 -0.2799,-0.3593 -0.4444,-0.4872 -0.1681,-0.1309 -0.4291,0.3611 -0.5139,0.4695 -0.3119,0.3999 -0.6525,0.7782 -1.0508,1.0954 0.2687,0.4059 0.5507,0.8065 0.887,1.1598 0.6751,0.7096 1.6234,1.1966 2.605,1.2856 1.5341,0.1402 3.0272,-0.5668 3.8639,-1.8652 0.6851,-1.0626 0.6745,-2.603 -0.0082,-3.6642 -0.3297,-0.5121 -0.8767,-0.8997 -1.3118,-1.3182 -0.4408,-0.4238 -1.0928,-0.9707 -1.0236,-1.6508 0.0585,-0.5761 0.5435,-0.8487 1.0758,-0.8628 0.3743,-0.01 0.7681,-0.009 1.1269,0.1135 0.3774,0.1283 0.6515,0.4328 1.0112,0.5657 0.0823,-0.4981 0.5142,-1.0039 0.7374,-1.4499 0.1396,-0.2782 0.2858,-0.5559 0.4447,-0.8235 0.0788,-0.1328 0.3779,-0.4443 0.2929,-0.6102 z m -9.9021,4.9399 c -0.0348,0.2805 -0.0535,0.6457 -0.246,0.8717 -0.0693,0.4223 -0.4673,0.8148 -0.752,1.1081 -0.3513,0.3619 -0.7408,0.5967 -1.2465,0.6701 -0.7716,0.1118 -1.4901,-0.2392 -1.8583,-0.9182 -0.4889,-0.9019 -0.2824,-1.9808 0.028,-2.8954 0.2386,-0.7019 0.8206,-1.6926 1.6606,-1.7645 -0.4354,-0.3588 -1.3664,-0.2265 -1.8777,-0.2011 0.1498,-0.1647 0.4193,-0.2649 0.6249,-0.3327 0.2535,-0.0834 0.574,-0.1572 0.8381,-0.1951 0.6839,-0.0982 1.4382,0.1061 1.9699,0.5456 0.5762,0.477 0.8632,1.1407 0.9115,1.8776 0.0269,0.4188 -3e-4,0.8182 -0.0525,1.2339 z"
       id="path25"
       inkscape:connector-curvature="0"
       style="fill:#eee817" /></g></svg>